<svg id="svg" xmlns="http://www.w3.org/2000/svg" xmlns:xlink="http://www.w3.org/1999/xlink" width="400" height="400" viewBox="0, 0, 400,400"><g id="svgg"><path id="path0" d="M157.292 32.151 C -35.009 76.106,-50.383 313.338,141.081 282.285 C 200.617 272.629,236.947 243.435,245.902 198.052 C 252.071 166.792,265.557 154.215,292.948 154.178 C 314.037 154.150,319.488 175.566,304.035 197.738 C 300.097 203.388,262.422 243.653,220.313 287.216 C 178.203 330.778,143.750 367.413,143.750 368.627 C 143.750 371.554,143.947 371.525,158.920 366.393 C 177.502 360.024,200.361 360.386,235.417 367.606 C 281.751 377.148,310.289 373.731,351.180 353.741 L 368.290 345.377 383.145 313.834 C 402.727 272.252,402.551 267.988,381.960 285.101 C 349.581 312.011,318.397 322.186,291.667 314.564 C 276.573 310.260,276.264 310.838,312.313 275.838 C 376.047 213.958,392.371 186.622,385.461 153.341 C 378.764 121.081,356.979 107.292,312.710 107.292 C 242.210 107.292,195.432 141.686,184.159 201.810 C 178.193 233.631,171.248 246.515,155.815 254.389 C 136.816 264.081,107.450 263.290,97.648 252.822 C 80.279 234.274,117.377 85.331,145.750 59.698 C 167.468 40.078,192.713 48.364,181.024 71.276 C 161.189 110.157,222.616 125.338,248.757 88.016 C 275.314 50.102,221.787 17.409,157.292 32.151 " stroke="none" fill="currentColor" fill-rule="evenodd"></path></g></svg>